<svg width="264" height="425" viewBox="0 0 264 425" fill="none" xmlns="http://www.w3.org/2000/svg">
<path d="M96.0935 0C148.636 12.818 193.71 66.8765 193.71 130.669C193.71 264.422 67.8156 288.535 67.8156 366.855C67.6725 374.301 68.7007 381.723 70.8626 388.85C39.3519 384.428 12.6719 347.758 12.6719 305.44C12.6719 196.951 107.204 175.811 107.204 62.9382C107.204 34.6643 96.0563 0 96.0563 0" fill="#EC1B34"/>
<path d="M223.66 154.262C236.073 165.354 245.998 178.948 252.78 194.15C259.563 209.353 263.049 225.818 263.011 242.464C263.011 356.526 133.884 370.421 133.884 414.04C133.752 417.759 134.294 421.473 135.482 425C114.97 417.309 99.2891 393.717 99.2891 371.536C99.2891 301.762 206.046 283.891 223.697 154.262" fill="#72BE44"/>
<path d="M31.585 36.1876C35.4124 43.4696 37.5463 51.5215 37.8277 59.743C37.8277 99.7946 0 115.065 0 155.748C0.0171207 164.667 2.34733 173.428 6.76305 181.178C11.1788 188.927 17.529 195.399 25.1937 199.961C25.4249 196.756 25.9725 193.583 26.8287 190.487C35.6353 162.213 77.1417 131.041 77.1417 86.4564C76.9143 73.9677 72.1708 61.9839 63.7888 52.7219C55.4068 43.46 43.9536 37.5468 31.5478 36.0762" fill="#00A4E4"/>
</svg>
