<svg xmlns="http://www.w3.org/2000/svg" viewBox="0 0 486.56 114.39" role="img" aria-label="SOCAR">
  <g transform="translate(-7.22 -192.92)">
    <path fill="#ec1b34" d="M33.08,192.92c14.14,3.45,26.27,18,26.27,35.17,0,36-33.88,42.49-33.88,63.57a19.13,19.13,0,0,0,.82,5.92c-8.48-1.19-15.66-11.06-15.66-22.45,0-29.2,25.44-34.89,25.44-65.27,0-7.61-3-16.94-3-16.94"/>
    <path fill="#72be44" d="M67.41,234.44A31.74,31.74,0,0,1,78,258.18c0,30.7-34.75,34.44-34.75,46.18a8.32,8.32,0,0,0,.43,2.95c-5.52-2.07-9.74-8.42-9.74-14.39,0-18.78,28.73-23.59,33.48-58.48"/>
    <path fill="#00a4e4" d="M15.72,202.66A14.71,14.71,0,0,1,17.4,209c0,10.78-10.18,14.89-10.18,25.84A13.88,13.88,0,0,0,14,246.74a13.11,13.11,0,0,1,.44-2.55c2.37-7.61,13.54-16,13.54-28a13.91,13.91,0,0,0-12.27-13.56"/>
    <path fill="#1a1a1a" d="M126.25,265.27c6.58,5.94,12.83,9.43,21.84,9.43,5,0,14.11-2.12,14.11-8.69,0-3.8-2.86-5.72-8.47-6.67L138,256.79c-14-2.22-21.64-9.64-21.64-20.77,0-18.21,14.74-25.75,30.86-25.75a44.78,44.78,0,0,1,33.29,14.52l-14.31,10.28A26.12,26.12,0,0,0,146,225.52c-4.32,0-10.7,2.76-10.7,7.64,0,4,3.3,6,10.48,7.22l7.24,1.16c15,2.43,27.45,7.09,27.45,21.5,0,22.68-20.47,26.94-34.57,26.94-12.82,0-24.86-4.15-35.15-15.37Z"/>
    <path fill="#1a1a1a" d="M226.87,290c-24.08,0-38.17-18.67-38.17-39.88s14.09-39.83,38.17-39.83S265,228.92,265,250.1,250.92,290,226.87,290m0-63.83c-11,0-19.3,7-19.3,23.95,0,11,4.46,24,19.3,24,14,0,19.29-12.31,19.29-24,0-11.86-5.31-23.95-19.29-23.95"/>
    <path fill="#1a1a1a" d="M326.73,237.51A17.19,17.19,0,0,0,311,226.14c-10.37,0-18.63,7-18.63,24,0,11,4.44,24,19.3,24,5.09,0,12.51-3.81,15.47-10.6l15,7.21C335.63,282.45,324.4,290,311.68,290c-24.08,0-38.19-18.65-38.19-39.86s13.16-39.83,36.69-39.83c14.83,0,24.58,7.2,31.59,19.69Z"/>
    <path fill="#1a1a1a" d="M371.47,212.4H391l28.53,75.44H399.23L395.42,276H367.55l-3.83,11.86H343.6ZM390.86,262l-9.32-31.15h-.2L372,262Z"/>
    <path fill="#1a1a1a" d="M427,212.39h37.73c17,0,27.37,7.85,27.37,24.79,0,9.77-6.16,17.58-15.6,20.36l17.3,30.31H472.66l-14.84-27.13h-12v27.13H427Zm18.87,34.31h17.28c6-.09,10.08-3.14,10.08-10.15s-4-10.08-10.08-10.18H445.85Z"/>
  </g>
</svg>
